# xmcd
#
# Track frame offsets:
#	150
#	22013
#	36501
#	47884
#	67117
#	79393
#	101738
#	113728
#	123957
#	138361
#	159279
#	180662
#	196884
#	214605
#	231299
#	247735
#	266185
#
# Disc length: 3815 seconds
#
# Revision: 1
# Processed by: cddbd v1.5.2PL0 Copyright (c) Steve Scherf et al.
# Submitted via: audiograbber 1.83.01
#
DISCID=f30ee511
DTITLE=Alan Jackson - Performance Live At Aqua Palooza
DYEAR=2009
DGENRE=Country
TTITLE0=Good Time
TTITLE1=I Don't Even Know Your Name
TTITLE2=Pop A Top
TTITLE3=Livin' On Love
TTITLE4=Tall, Tall Trees
TTITLE5=Small Town Southern Man
TTITLE6=Summertime Blues
TTITLE7=Who's Cheatin' Who
TTITLE8=Little Bitty
TTITLE9=Drive (For Daddy Gene)
TTITLE10=Where Were You (When The World Stopped Turning)
TTITLE11=Don't Rock The Jukebox
TTITLE12=Country Boy
TTITLE13=It's Five O'Clock Somewhere
TTITLE14=Chattahoochee
TTITLE15=Mercury Blues
TTITLE16=Where I Come From
EXTD=
EXTT0=
EXTT1=
EXTT2=
EXTT3=
EXTT4=
EXTT5=
EXTT6=
EXTT7=
EXTT8=
EXTT9=
EXTT10=
EXTT11=
EXTT12=
EXTT13=
EXTT14=
EXTT15=
EXTT16=
PLAYORDER=
